<svg xmlns="http://www.w3.org/2000/svg" width="7.94" height="7.969" viewBox="0 0 7.94 7.969">
  <metadata><?xpacket begin="﻿" id="W5M0MpCehiHzreSzNTczkc9d"?>
<x:xmpmeta xmlns:x="adobe:ns:meta/" x:xmptk="Adobe XMP Core 5.6-c138 79.159824, 2016/09/14-01:09:01        ">
   <rdf:RDF xmlns:rdf="http://www.w3.org/1999/02/22-rdf-syntax-ns#">
      <rdf:Description rdf:about=""/>
   </rdf:RDF>
</x:xmpmeta>





















<?xpacket end="w"?></metadata>
<defs>
    <style>
      .cls-1 {
        fill: #fff;
        fill-rule: evenodd;
      }
    </style>
  </defs>
  <path id="close" class="cls-1" d="M1117,197.612l-1.96-1.969,1.96-1.969a0.641,0.641,0,0,0,0-.911l-0.91-.91a0.6,0.6,0,0,0-.45-0.188,0.637,0.637,0,0,0-.46.188l-1.97,1.968-1.96-1.968a0.657,0.657,0,0,0-.92,0l-0.91.91a0.666,0.666,0,0,0,0,.911l1.97,1.969-1.97,1.969a0.665,0.665,0,0,0,0,.91l0.91,0.911a0.659,0.659,0,0,0,.92,0l1.96-1.969,1.97,1.969a0.636,0.636,0,0,0,.46.187,0.6,0.6,0,0,0,.45-0.187l0.91-.911a0.64,0.64,0,0,0,0-.91h0Z" transform="translate(-1109.25 -191.656)"/>
</svg>
