<svg xmlns="http://www.w3.org/2000/svg" width="9" height="8" viewBox="0 0 9 8">
  <metadata><?xpacket begin="﻿" id="W5M0MpCehiHzreSzNTczkc9d"?>
<x:xmpmeta xmlns:x="adobe:ns:meta/" x:xmptk="Adobe XMP Core 5.6-c138 79.159824, 2016/09/14-01:09:01        ">
   <rdf:RDF xmlns:rdf="http://www.w3.org/1999/02/22-rdf-syntax-ns#">
      <rdf:Description rdf:about=""/>
   </rdf:RDF>
</x:xmpmeta>
                                                                                                    
                                                                                                    
                                                                                                    
                                                                                                    
                                                                                                    
                                                                                                    
                                                                                                    
                                                                                                    
                                                                                                    
                                                                                                    
                                                                                                    
                                                                                                    
                                                                                                    
                                                                                                    
                                                                                                    
                                                                                                    
                                                                                                    
                                                                                                    
                                                                                                    
                                                                                                    
                           
<?xpacket end="w"?></metadata>
<defs>
    <style>
      .cls-1 {
        fill-rule: evenodd;
      }
    </style>
  </defs>
  <path id="comment" class="cls-1" d="M1119.76,292.439a5.644,5.644,0,0,0-2.26-.446,5.817,5.817,0,0,0-1.75.263,4.856,4.856,0,0,0-1.43.711,3.314,3.314,0,0,0-.96,1.066,2.534,2.534,0,0,0-.36,1.295,2.611,2.611,0,0,0,.45,1.464,3.786,3.786,0,0,0,1.25,1.146c-0.04.139-.08,0.271-0.13,0.4s-0.1.228-.14,0.308a1.884,1.884,0,0,1-.16.265,1.846,1.846,0,0,1-.16.206c-0.03.04-.09,0.106-0.17,0.2s-0.13.152-.16,0.18a0.272,0.272,0,0,1-.04.047,0.14,0.14,0,0,0-.03.044,0.089,0.089,0,0,0-.03.047c-0.02.026-.03,0.043-0.02,0.05a0.216,0.216,0,0,0-.01.052,0.066,0.066,0,0,0,0,.062v0a0.232,0.232,0,0,0,.09.152,0.181,0.181,0,0,0,.15.047,3.569,3.569,0,0,0,.57-0.115,5.394,5.394,0,0,0,2.31-1.261,6.651,6.651,0,0,0,.73.042,5.644,5.644,0,0,0,2.26-.446A4.078,4.078,0,0,0,1121.4,297a2.638,2.638,0,0,0,0-3.35A4.068,4.068,0,0,0,1119.76,292.439Z" transform="translate(-1113 -292)"/>
</svg>
