<svg xmlns="http://www.w3.org/2000/svg" width="15" height="13" viewBox="0 0 15 13">
  <metadata><?xpacket begin="﻿" id="W5M0MpCehiHzreSzNTczkc9d"?>
<x:xmpmeta xmlns:x="adobe:ns:meta/" x:xmptk="Adobe XMP Core 5.6-c138 79.159824, 2016/09/14-01:09:01        ">
   <rdf:RDF xmlns:rdf="http://www.w3.org/1999/02/22-rdf-syntax-ns#">
      <rdf:Description rdf:about=""/>
   </rdf:RDF>
</x:xmpmeta>





















<?xpacket end="w"?></metadata>
<defs>
    <style>
      .cls-1 {
        fill: #fff;
        fill-rule: evenodd;
      }
    </style>
  </defs>
  <path id="external-link" class="cls-1" d="M919.71,489.657a0.257,0.257,0,0,0-.192-0.076h-0.536a0.261,0.261,0,0,0-.193.076,0.267,0.267,0,0,0-.075.195v2.709a1.312,1.312,0,0,1-.393.957,1.282,1.282,0,0,1-.946.4H910.41a1.278,1.278,0,0,1-.945-0.4,1.309,1.309,0,0,1-.394-0.957v-7.044a1.309,1.309,0,0,1,.394-0.957,1.282,1.282,0,0,1,.945-0.4H916.3a0.259,0.259,0,0,0,.193-0.076,0.267,0.267,0,0,0,.075-0.195v-0.542a0.267,0.267,0,0,0-.075-0.195,0.263,0.263,0,0,0-.193-0.076H910.41a2.309,2.309,0,0,0-1.7.716,2.364,2.364,0,0,0-.707,1.723v7.044a2.362,2.362,0,0,0,.707,1.723,2.305,2.305,0,0,0,1.7.716h6.965a2.3,2.3,0,0,0,1.7-.716,2.358,2.358,0,0,0,.707-1.723v-2.709A0.267,0.267,0,0,0,919.71,489.657Zm3.131-7.5a0.514,0.514,0,0,0-.377-0.161h-4.286a0.512,0.512,0,0,0-.376.161,0.536,0.536,0,0,0,0,.762l1.473,1.49-5.458,5.521a0.271,0.271,0,0,0,0,.39l0.954,0.965a0.262,0.262,0,0,0,.386,0l5.457-5.521,1.474,1.49a0.521,0.521,0,0,0,.753,0,0.523,0.523,0,0,0,.159-0.381v-4.335A0.523,0.523,0,0,0,922.841,482.155Z" transform="translate(-908 -482)"/>
</svg>
