<svg xmlns="http://www.w3.org/2000/svg" width="12" height="10.281" viewBox="0 0 12 10.281">
  <metadata><?xpacket begin="﻿" id="W5M0MpCehiHzreSzNTczkc9d"?>
<x:xmpmeta xmlns:x="adobe:ns:meta/" x:xmptk="Adobe XMP Core 5.6-c138 79.159824, 2016/09/14-01:09:01        ">
   <rdf:RDF xmlns:rdf="http://www.w3.org/1999/02/22-rdf-syntax-ns#">
      <rdf:Description rdf:about=""/>
   </rdf:RDF>
</x:xmpmeta>





















<?xpacket end="w"?></metadata>
<defs>
    <style>
      .cls-1 {
        fill: #ff6363;
        fill-rule: evenodd;
      }
    </style>
  </defs>
  <path id="heart" class="cls-1" d="M1116.88,598.589l-3.88,3.744-3.89-3.75a3.5,3.5,0,0,1-1.25-2.378,3.091,3.091,0,0,1,.14-0.957,1.929,1.929,0,0,1,.37-0.66,1.715,1.715,0,0,1,.55-0.4,2.371,2.371,0,0,1,.62-0.208,3.9,3.9,0,0,1,.66-0.053,1.938,1.938,0,0,1,.75.17,3.254,3.254,0,0,1,.74.429,6.981,6.981,0,0,1,.58.482c0.16,0.15.29,0.287,0.4,0.412a0.444,0.444,0,0,0,.66,0c0.11-.125.24-0.262,0.4-0.412a6.981,6.981,0,0,1,.58-0.482,3.254,3.254,0,0,1,.74-0.429,1.938,1.938,0,0,1,.75-0.17,3.9,3.9,0,0,1,.66.053,2.371,2.371,0,0,1,.62.208,1.715,1.715,0,0,1,.55.4,1.929,1.929,0,0,1,.37.66,3.091,3.091,0,0,1,.14.957,3.534,3.534,0,0,1-1.26,2.384h0Zm1.27-4.687a3.223,3.223,0,0,0-2.35-.831,2.681,2.681,0,0,0-.85.144,3.407,3.407,0,0,0-.8.389c-0.25.163-.46,0.316-0.64,0.458a0.513,0.513,0,0,1-1.02,0c-0.18-.142-0.39-0.295-0.64-0.458a3.407,3.407,0,0,0-.8-0.389,2.681,2.681,0,0,0-.85-0.144,3.223,3.223,0,0,0-2.35.831,3.057,3.057,0,0,0-.85,2.3,2.8,2.8,0,0,0,.16.924,3.515,3.515,0,0,0,.36.811,5.357,5.357,0,0,0,.45.653c0.17,0.212.29,0.358,0.37,0.438a1.583,1.583,0,0,0,.19.174l4.18,4.032a0.41,0.41,0,0,0,.58,0l4.18-4.018a4.384,4.384,0,0,0,1.53-3.014A3.057,3.057,0,0,0,1118.15,593.9Z" transform="translate(-1107 -593.063)"/>
</svg>
