<svg xmlns="http://www.w3.org/2000/svg" width="17.22" height="12.032" viewBox="0 0 17.22 12.032">
  <metadata><?xpacket begin="﻿" id="W5M0MpCehiHzreSzNTczkc9d"?>
<x:xmpmeta xmlns:x="adobe:ns:meta/" x:xmptk="Adobe XMP Core 5.6-c138 79.159824, 2016/09/14-01:09:01        ">
   <rdf:RDF xmlns:rdf="http://www.w3.org/1999/02/22-rdf-syntax-ns#">
      <rdf:Description rdf:about=""/>
   </rdf:RDF>
</x:xmpmeta>





















<?xpacket end="w"?></metadata>
<defs>
    <style>
      .cls-1 {
        fill: #cbcbcb;
        fill-rule: evenodd;
      }
    </style>
  </defs>
  <path id="users" class="cls-1" d="M1153.61,224.157a2.121,2.121,0,0,0-.63-1.533,2.1,2.1,0,0,0-3.03,0,2.152,2.152,0,0,0-.62,1.533,2.125,2.125,0,0,0,2.14,2.138A2.142,2.142,0,0,0,1153.61,224.157Zm-6.02-1.311a2.537,2.537,0,0,0-2.56-2.562,2.53,2.53,0,0,0-1.83.746,2.41,2.41,0,0,0-.77,1.816,2.583,2.583,0,0,0,4.42,1.835A2.56,2.56,0,0,0,1147.59,222.846Zm-0.84,7.524v1.937h9.48V230.37c0-.7-0.55-1.264-1.64-1.694a7.785,7.785,0,0,0-6.21,0c-1.09.43-1.63,1-1.63,1.694h0Zm-4.18-2.905a7.765,7.765,0,0,0-2.46,1.049,2.027,2.027,0,0,0-1.11,1.654v2.139h6.01V230.37a3.373,3.373,0,0,1,2.06-2.985,10.314,10.314,0,0,0-2.06-.243A10.648,10.648,0,0,0,1142.57,227.465Z" transform="translate(-1139 -220.281)"/>
</svg>
