<?xml version="1.0" encoding="utf-8"?>
<!-- Generator: Adobe Illustrator 21.1.0, SVG Export Plug-In . SVG Version: 6.00 Build 0)  -->
<svg version="1.1" id="Layer_1" xmlns="http://www.w3.org/2000/svg" xmlns:xlink="http://www.w3.org/1999/xlink" x="0px" y="0px"
	 viewBox="0 0 63.2 85.3" style="enable-background:new 0 0 63.2 85.3;" xml:space="preserve">
<style type="text/css">
	.st0{enable-background:new    ;}
	.st1{fill:#585858;}
	.st2{fill:#F05D5D;}
	.st3{clip-path:url(#SVGID_3_);}
	.st4{clip-path:url(#SVGID_4_);}
</style>
<title>Asset 2</title>
<g id="Layer_2">
	<g id="Layer_1-2">
		<g class="st0">
			<path class="st1" d="M1.4,63.6h5.7c0.6,0,1.1,0.1,1.6,0.3c0.5,0.2,0.9,0.4,1.2,0.7s0.6,0.7,0.8,1.2c0.2,0.5,0.3,1,0.3,1.5
				c0,0.4-0.1,0.8-0.2,1.2s-0.3,0.7-0.5,1c-0.2,0.3-0.5,0.6-0.7,0.8c-0.3,0.2-0.6,0.4-0.9,0.5v0.1c0.4,0.1,0.7,0.3,1,0.5
				c0.3,0.2,0.6,0.5,0.8,0.8c0.2,0.3,0.4,0.7,0.6,1.1c0.1,0.4,0.2,0.9,0.2,1.3c0,0.6-0.1,1.2-0.3,1.7s-0.5,0.9-0.9,1.3
				s-0.8,0.6-1.3,0.8c-0.5,0.2-1.1,0.3-1.6,0.3H1.4V63.6z M3.4,65.3v4.7h3.2c0.4,0,0.7-0.1,1-0.2s0.6-0.3,0.8-0.5s0.4-0.5,0.5-0.8
				C9,68.3,9,68,9,67.7c0-0.8-0.2-1.4-0.6-1.8c-0.4-0.4-1-0.6-1.7-0.6H3.4z M3.4,71.8v5.1h3.5c0.4,0,0.7-0.1,1-0.2
				c0.3-0.1,0.6-0.3,0.8-0.5c0.2-0.2,0.4-0.5,0.5-0.8c0.1-0.3,0.2-0.7,0.2-1.1c0-0.3-0.1-0.7-0.2-1c-0.1-0.3-0.3-0.6-0.5-0.8
				S8.2,72.2,7.8,72c-0.3-0.1-0.7-0.2-1.1-0.2H3.4z"/>
			<path class="st1" d="M20.7,78.7h-1.4l-0.2-1.3H19c-0.3,0.6-0.7,1-1.2,1.2s-1,0.4-1.6,0.4c-0.4,0-0.8-0.1-1.2-0.2
				s-0.7-0.3-0.9-0.6c-0.2-0.3-0.4-0.6-0.6-1.1c-0.1-0.4-0.2-1-0.2-1.6v-8.3h1.8v8.2c0,0.4,0,0.7,0.1,1c0.1,0.3,0.2,0.5,0.3,0.6
				c0.1,0.2,0.3,0.3,0.5,0.3c0.2,0.1,0.4,0.1,0.7,0.1c0.3,0,0.6-0.1,0.8-0.2c0.3-0.1,0.5-0.4,0.7-0.6c0.2-0.3,0.4-0.6,0.5-1
				c0.1-0.4,0.2-0.8,0.2-1.3v-7.1h1.8V78.7z"/>
			<path class="st1" d="M31.7,65.2c0,0.3,0,0.7-0.1,1c-0.1,0.3-0.2,0.6-0.4,0.8c-0.2,0.2-0.4,0.4-0.6,0.6c-0.2,0.2-0.5,0.3-0.8,0.4
				c0.3,0.3,0.6,0.7,0.8,1.2s0.3,1,0.3,1.5c0,0.6-0.1,1.1-0.3,1.6c-0.2,0.5-0.4,0.9-0.7,1.2c-0.3,0.3-0.7,0.6-1.2,0.8
				c-0.5,0.2-1,0.3-1.5,0.3h-1.2c-0.2,0-0.3,0-0.4,0.1c-0.1,0.1-0.2,0.1-0.3,0.2s-0.2,0.2-0.2,0.3c-0.1,0.1-0.1,0.3-0.1,0.4
				s0,0.3,0.1,0.4c0.1,0.1,0.1,0.2,0.2,0.3c0.1,0.1,0.2,0.2,0.3,0.2c0.1,0.1,0.3,0.1,0.4,0.1h3.3c0.4,0,0.8,0.1,1.1,0.2
				c0.3,0.1,0.6,0.3,0.9,0.6c0.2,0.2,0.4,0.5,0.5,0.9c0.1,0.3,0.2,0.7,0.2,1c0,0.5-0.1,0.9-0.2,1.3c-0.1,0.4-0.4,0.7-0.6,1
				c-0.3,0.3-0.6,0.5-1.1,0.7c-0.4,0.2-0.9,0.3-1.5,0.3h-3.3c-0.5,0-0.9-0.1-1.2-0.2c-0.4-0.1-0.7-0.3-0.9-0.6
				c-0.2-0.3-0.4-0.5-0.5-0.9c-0.1-0.3-0.2-0.7-0.2-1.1c0-0.3,0-0.5,0.1-0.8c0.1-0.3,0.2-0.5,0.3-0.7s0.3-0.4,0.5-0.6
				c0.2-0.2,0.4-0.3,0.6-0.4c-0.3-0.2-0.5-0.4-0.7-0.7c-0.2-0.3-0.2-0.6-0.2-1c0-0.5,0.1-0.9,0.4-1.2c0.3-0.3,0.7-0.6,1.2-0.8
				c-0.4-0.3-0.8-0.8-1-1.3c-0.2-0.5-0.4-1.1-0.4-1.7c0-0.6,0.1-1.2,0.3-1.6s0.4-0.9,0.7-1.2c0.3-0.3,0.7-0.6,1.2-0.8
				c0.5-0.2,1-0.3,1.6-0.3c0.3,0,0.6,0,0.9,0.1c0.3,0.1,0.6,0.2,0.8,0.3c0.3-0.1,0.5-0.3,0.6-0.4c0.2-0.2,0.3-0.3,0.4-0.5
				c0.1-0.2,0.2-0.4,0.2-0.5s0.1-0.4,0.1-0.5H31.7z M25.5,78.4c-0.2,0-0.4,0-0.6,0.1c-0.2,0.1-0.3,0.2-0.4,0.3
				c-0.1,0.1-0.2,0.3-0.2,0.4s-0.1,0.3-0.1,0.5s0,0.4,0.1,0.5c0.1,0.2,0.1,0.3,0.3,0.4c0.1,0.1,0.3,0.2,0.4,0.3
				c0.2,0.1,0.4,0.1,0.6,0.1h3.2c0.2,0,0.4,0,0.5-0.1c0.2-0.1,0.3-0.2,0.4-0.3c0.1-0.1,0.2-0.3,0.3-0.4c0.1-0.2,0.1-0.3,0.1-0.5
				s0-0.4-0.1-0.5s-0.1-0.3-0.3-0.4c-0.1-0.1-0.3-0.2-0.4-0.3c-0.2-0.1-0.4-0.1-0.6-0.1H25.5z M27,68.3c-0.6,0-1.1,0.2-1.5,0.6
				c-0.3,0.4-0.5,1-0.5,1.8c0,0.8,0.2,1.4,0.5,1.8c0.3,0.4,0.8,0.6,1.5,0.6s1.1-0.2,1.5-0.6c0.3-0.4,0.5-1,0.5-1.7
				c0-0.8-0.2-1.4-0.5-1.8C28.1,68.5,27.6,68.3,27,68.3z"/>
		</g>
		<g class="st0">
			<path class="st2" d="M33.5,63.6h5.7c0.6,0,1.1,0.1,1.6,0.3c0.5,0.2,0.9,0.4,1.2,0.7s0.6,0.7,0.8,1.2c0.2,0.5,0.3,1,0.3,1.5
				c0,0.4-0.1,0.8-0.2,1.2s-0.3,0.7-0.5,1c-0.2,0.3-0.5,0.6-0.7,0.8c-0.3,0.2-0.6,0.4-0.9,0.5v0.1c0.4,0.1,0.7,0.3,1,0.5
				c0.3,0.2,0.6,0.5,0.8,0.8c0.2,0.3,0.4,0.7,0.6,1.1c0.1,0.4,0.2,0.9,0.2,1.3c0,0.6-0.1,1.2-0.3,1.7s-0.5,0.9-0.9,1.3
				s-0.8,0.6-1.3,0.8c-0.5,0.2-1.1,0.3-1.6,0.3h-5.7V63.6z M35.5,65.3v4.7h3.2c0.4,0,0.7-0.1,1-0.2s0.6-0.3,0.8-0.5s0.4-0.5,0.5-0.8
				s0.2-0.6,0.2-0.9c0-0.8-0.2-1.4-0.6-1.8c-0.4-0.4-1-0.6-1.7-0.6H35.5z M35.5,71.8v5.1H39c0.4,0,0.7-0.1,1-0.2
				c0.3-0.1,0.6-0.3,0.8-0.5c0.2-0.2,0.4-0.5,0.5-0.8c0.1-0.3,0.2-0.7,0.2-1.1c0-0.3-0.1-0.7-0.2-1c-0.1-0.3-0.3-0.6-0.5-0.8
				s-0.5-0.4-0.8-0.6c-0.3-0.1-0.7-0.2-1.1-0.2H35.5z"/>
			<path class="st2" d="M49.1,66.8c1.4,0,2.4,0.5,3.1,1.5s1.1,2.5,1.1,4.6c0,2.1-0.4,3.6-1.1,4.6c-0.7,1-1.7,1.5-3.1,1.5
				s-2.4-0.5-3.1-1.5c-0.7-1-1.1-2.5-1.1-4.6c0-2.1,0.4-3.6,1.1-4.6S47.8,66.8,49.1,66.8z M49.1,68.4c-0.8,0-1.3,0.3-1.7,1
				c-0.4,0.7-0.6,1.7-0.6,3v0.8c0,1.3,0.2,2.3,0.6,3c0.4,0.7,0.9,1,1.7,1c0.8,0,1.3-0.3,1.7-1s0.6-1.7,0.6-3v-0.8
				c0-1.3-0.2-2.3-0.6-3S49.9,68.4,49.1,68.4z"/>
			<path class="st2" d="M59.7,72.7l3.4,6h-2.2l-2.3-4.2l-2.3,4.2h-2l3.4-5.9l-3.2-5.7h2.2l2.1,4l2.1-4h2L59.7,72.7z"/>
		</g>
		<path class="st2" d="M47.6,16.3l-6-8.8c-0.6-0.8-1.3-1.6-2.1-2.2l3.1-2.6c0.6-0.5,0.7-1.5,0.2-2.2c-0.5-0.6-1.5-0.7-2.2-0.2
			c0,0,0,0,0,0l-4.1,3.4c-2.4-0.8-5-0.7-7.4,0.1l-4.4-3.6c-0.7-0.5-1.7-0.5-2.3,0.2l0,0c0,0.6-0.3,1.6,0.3,2.1l3.4,2.8
			c-0.7,0.6-1.3,1.2-1.8,1.9l-6,8.7c-6.8,12.4,3.4,25.2,3.9,25.8L24,44l2-5.7l7.1,10.3l0.2,0.3l6.9-10.2L42,44l1.7-2.1
			C44.2,41.4,54.3,28.6,47.6,16.3z M26.9,9c1.4-1.9,3.7-2.9,6.1-2.8c2.4-0.1,4.7,1,6.1,3l1.3,1.2c-2,1.8-4.6,2.7-7.3,2.5h-0.2
			c-2.6,0-5.2-0.9-7.3-2.6L26.9,9z M23,37.7c-2.3-3.8-6.3-12.4-1.8-20.2v-0.1l2.7-3.9c1.8,1.6,4,2.8,6.4,3.4L23,37.7z M33.3,43.7
			l-6.1-8.8L33,18.4l5.9,16.9L33.3,43.7z M42.9,37.7L35.7,17c2.4-0.6,4.6-1.7,6.4-3.4l2.8,4C49.2,25.4,45.2,33.9,42.9,37.7
			L42.9,37.7z"/>
		<g>
			<defs>
				<path id="SVGID_1_" d="M47.6,16.3l-6-8.8c-0.6-0.8-1.3-1.6-2.1-2.2l3.1-2.6c0.6-0.5,0.7-1.5,0.2-2.2c-0.5-0.6-1.5-0.7-2.2-0.2
					c0,0,0,0,0,0l-4.1,3.4c-2.4-0.8-5-0.7-7.4,0.1l-4.4-3.6c-0.7-0.5-1.7-0.5-2.3,0.2l0,0c0,0.6-0.3,1.6,0.3,2.1l3.4,2.8
					c-0.7,0.6-1.3,1.2-1.8,1.9l-6,8.7c-6.8,12.4,3.4,25.2,3.9,25.8L24,44l2-5.7l7.1,10.3l0.2,0.3l6.9-10.2L42,44l1.7-2.1
					C44.2,41.4,54.3,28.6,47.6,16.3z M26.9,9c1.4-1.9,3.7-2.9,6.1-2.8c2.4-0.1,4.7,1,6.1,3l1.3,1.2c-2,1.8-4.6,2.7-7.3,2.5h-0.2
					c-2.6,0-5.2-0.9-7.3-2.6L26.9,9z M23,37.7c-2.3-3.8-6.3-12.4-1.8-20.2v-0.1l2.7-3.9c1.8,1.6,4,2.8,6.4,3.4L23,37.7z M33.3,43.7
					l-6.1-8.8L33,18.4l5.9,16.9L33.3,43.7z M42.9,37.7L35.7,17c2.4-0.6,4.6-1.7,6.4-3.4l2.8,4C49.2,25.4,45.2,33.9,42.9,37.7
					L42.9,37.7z"/>
			</defs>
			<defs>
				<path id="SVGID_2_" d="M47.6,16.3l-6-8.8c-0.6-0.8-1.3-1.6-2.1-2.2l3.1-2.6c0.6-0.5,0.7-1.5,0.2-2.2c-0.5-0.6-1.5-0.7-2.2-0.2
					c0,0,0,0,0,0l-4.1,3.4c-2.4-0.8-5-0.7-7.4,0.1l-4.4-3.6c-0.7-0.5-1.7-0.5-2.3,0.2l0,0c0,0.6-0.3,1.6,0.3,2.1l3.4,2.8
					c-0.7,0.6-1.3,1.2-1.8,1.9l-6,8.7c-6.8,12.4,3.4,25.2,3.9,25.8L24,44l2-5.7l7.1,10.3l0.2,0.3l6.9-10.2L42,44l1.7-2.1
					C44.2,41.4,54.3,28.6,47.6,16.3z M26.9,9c1.4-1.9,3.7-2.9,6.1-2.8c2.4-0.1,4.7,1,6.1,3l1.3,1.2c-2,1.8-4.6,2.7-7.3,2.5h-0.2
					c-2.6,0-5.2-0.9-7.3-2.6L26.9,9z M23,37.7c-2.3-3.8-6.3-12.4-1.8-20.2v-0.1l2.7-3.9c1.8,1.6,4,2.8,6.4,3.4L23,37.7z M33.3,43.7
					l-6.1-8.8L33,18.4l5.9,16.9L33.3,43.7z M42.9,37.7L35.7,17c2.4-0.6,4.6-1.7,6.4-3.4l2.8,4C49.2,25.4,45.2,33.9,42.9,37.7
					L42.9,37.7z"/>
			</defs>
			<clipPath id="SVGID_3_">
				<use xlink:href="#SVGID_1_"  style="overflow:visible;"/>
			</clipPath>
			<clipPath id="SVGID_4_" class="st3">
				<use xlink:href="#SVGID_2_"  style="overflow:visible;"/>
			</clipPath>
			<g class="st4">
				<polygon class="st1" points="24,44 33,18.4 42,44 40.9,47.1 38.9,53.6 27.6,52.1 				"/>
			</g>
		</g>
	</g>
</g>
</svg>
