<?xml version="1.0" encoding="utf-8"?>
<!-- Generator: Adobe Illustrator 21.1.0, SVG Export Plug-In . SVG Version: 6.00 Build 0)  -->
<svg version="1.1" id="Layer_1" xmlns="http://www.w3.org/2000/svg" xmlns:xlink="http://www.w3.org/1999/xlink" x="0px" y="0px"
	 viewBox="0 0 69.8 35" style="enable-background:new 0 0 69.8 35;" xml:space="preserve">
<style type="text/css">
	.st0{enable-background:new    ;}
	.st1{fill:#585858;}
	.st2{fill:#F05D5D;}
	.st3{clip-path:url(#SVGID_3_);}
	.st4{clip-path:url(#SVGID_4_);}
</style>
<title>bb-logo-horizontal</title>
<g id="Layer_2">
	<g id="Layer_1-2">
		<g class="st0">
			<path class="st1" d="M29.1,10h3.8c0.4,0,0.7,0.1,1,0.2c0.3,0.1,0.6,0.3,0.8,0.5c0.2,0.2,0.4,0.5,0.5,0.8s0.2,0.6,0.2,1
				c0,0.3,0,0.6-0.1,0.8c-0.1,0.2-0.2,0.5-0.3,0.7c-0.1,0.2-0.3,0.4-0.5,0.5s-0.4,0.3-0.6,0.3v0.1c0.2,0.1,0.5,0.2,0.7,0.3
				s0.4,0.3,0.6,0.6s0.3,0.5,0.4,0.7s0.1,0.6,0.1,0.9c0,0.4-0.1,0.8-0.2,1.1c-0.1,0.3-0.4,0.6-0.6,0.8s-0.6,0.4-0.9,0.5
				s-0.7,0.2-1.1,0.2h-3.8V10z M30.3,11.1v3.1h2.1c0.2,0,0.5,0,0.7-0.1s0.4-0.2,0.5-0.3s0.3-0.3,0.3-0.5c0.1-0.2,0.1-0.4,0.1-0.6
				c0-0.5-0.1-0.9-0.4-1.2c-0.3-0.3-0.6-0.4-1.1-0.4H30.3z M30.3,15.4v3.3h2.3c0.2,0,0.5,0,0.7-0.1c0.2-0.1,0.4-0.2,0.5-0.3
				c0.1-0.1,0.3-0.3,0.3-0.5c0.1-0.2,0.1-0.4,0.1-0.7c0-0.2,0-0.4-0.1-0.6c-0.1-0.2-0.2-0.4-0.3-0.5c-0.1-0.2-0.3-0.3-0.5-0.4
				s-0.5-0.1-0.7-0.1H30.3z"/>
			<path class="st1" d="M41.8,19.9h-0.9L40.7,19h-0.1c-0.2,0.4-0.5,0.7-0.8,0.8c-0.3,0.2-0.7,0.2-1,0.2c-0.3,0-0.5,0-0.8-0.1
				s-0.4-0.2-0.6-0.4s-0.3-0.4-0.4-0.7c-0.1-0.3-0.1-0.7-0.1-1.1v-5.5h1.2v5.4c0,0.3,0,0.5,0.1,0.7c0.1,0.2,0.1,0.3,0.2,0.4
				c0.1,0.1,0.2,0.2,0.3,0.2S39,19,39.2,19c0.2,0,0.4,0,0.5-0.1c0.2-0.1,0.3-0.2,0.5-0.4c0.1-0.2,0.2-0.4,0.3-0.7
				c0.1-0.3,0.1-0.6,0.1-0.9v-4.7h1.2V19.9z"/>
			<path class="st1" d="M49,11c0,0.2,0,0.4-0.1,0.6c-0.1,0.2-0.1,0.4-0.3,0.5c-0.1,0.2-0.2,0.3-0.4,0.4c-0.2,0.1-0.3,0.2-0.5,0.2
				c0.2,0.2,0.4,0.5,0.5,0.8c0.1,0.3,0.2,0.6,0.2,1c0,0.4-0.1,0.7-0.2,1.1c-0.1,0.3-0.3,0.6-0.5,0.8c-0.2,0.2-0.5,0.4-0.8,0.5
				c-0.3,0.1-0.6,0.2-1,0.2h-0.8c-0.1,0-0.2,0-0.3,0.1c-0.1,0-0.2,0.1-0.2,0.1c-0.1,0.1-0.1,0.1-0.1,0.2c0,0.1-0.1,0.2-0.1,0.3
				c0,0.1,0,0.2,0.1,0.3c0,0.1,0.1,0.2,0.2,0.2c0.1,0.1,0.1,0.1,0.2,0.1c0.1,0,0.2,0.1,0.3,0.1h2.2c0.3,0,0.5,0,0.7,0.1
				c0.2,0.1,0.4,0.2,0.6,0.4c0.2,0.2,0.3,0.4,0.4,0.6c0.1,0.2,0.1,0.4,0.1,0.7c0,0.3,0,0.6-0.1,0.8c-0.1,0.3-0.2,0.5-0.4,0.7
				c-0.2,0.2-0.4,0.3-0.7,0.5c-0.3,0.1-0.6,0.2-1,0.2h-2.2c-0.3,0-0.6,0-0.8-0.1c-0.2-0.1-0.4-0.2-0.6-0.4c-0.2-0.2-0.3-0.4-0.4-0.6
				c-0.1-0.2-0.1-0.5-0.1-0.7c0-0.2,0-0.4,0.1-0.5c0-0.2,0.1-0.3,0.2-0.5s0.2-0.3,0.3-0.4c0.1-0.1,0.3-0.2,0.4-0.2
				c-0.2-0.1-0.4-0.3-0.5-0.5c-0.1-0.2-0.2-0.4-0.2-0.7c0-0.3,0.1-0.6,0.3-0.8c0.2-0.2,0.5-0.4,0.8-0.5c-0.3-0.2-0.5-0.5-0.7-0.8
				c-0.2-0.3-0.2-0.7-0.2-1.1c0-0.4,0.1-0.8,0.2-1.1s0.3-0.6,0.5-0.8s0.5-0.4,0.8-0.5c0.3-0.1,0.7-0.2,1-0.2c0.2,0,0.4,0,0.6,0.1
				c0.2,0,0.4,0.1,0.5,0.2c0.2-0.1,0.3-0.2,0.4-0.3c0.1-0.1,0.2-0.2,0.3-0.3c0.1-0.1,0.1-0.2,0.2-0.4s0.1-0.2,0.1-0.4H49z
				 M44.9,19.7c-0.2,0-0.3,0-0.4,0.1c-0.1,0-0.2,0.1-0.3,0.2s-0.1,0.2-0.2,0.3S44,20.5,44,20.6c0,0.1,0,0.2,0.1,0.3
				c0,0.1,0.1,0.2,0.2,0.3c0.1,0.1,0.2,0.1,0.3,0.2c0.1,0,0.2,0.1,0.4,0.1H47c0.1,0,0.2,0,0.4-0.1c0.1,0,0.2-0.1,0.3-0.2
				c0.1-0.1,0.1-0.2,0.2-0.3c0-0.1,0.1-0.2,0.1-0.3c0-0.1,0-0.2-0.1-0.3c0-0.1-0.1-0.2-0.2-0.3c-0.1-0.1-0.2-0.1-0.3-0.2
				c-0.1,0-0.2-0.1-0.4-0.1H44.9z M45.9,13.1c-0.4,0-0.7,0.1-1,0.4s-0.3,0.7-0.3,1.2c0,0.5,0.1,0.9,0.3,1.2c0.2,0.3,0.5,0.4,1,0.4
				s0.7-0.1,1-0.4c0.2-0.3,0.3-0.7,0.3-1.2c0-0.5-0.1-0.9-0.3-1.2S46.3,13.1,45.9,13.1z"/>
		</g>
		<g class="st0">
			<path class="st2" d="M50.2,10H54c0.4,0,0.7,0.1,1,0.2c0.3,0.1,0.6,0.3,0.8,0.5c0.2,0.2,0.4,0.5,0.5,0.8s0.2,0.6,0.2,1
				c0,0.3,0,0.6-0.1,0.8s-0.2,0.5-0.3,0.7c-0.1,0.2-0.3,0.4-0.5,0.5s-0.4,0.3-0.6,0.3v0.1c0.2,0.1,0.5,0.2,0.7,0.3s0.4,0.3,0.6,0.6
				s0.3,0.5,0.4,0.7s0.1,0.6,0.1,0.9c0,0.4-0.1,0.8-0.2,1.1c-0.1,0.3-0.4,0.6-0.6,0.8s-0.6,0.4-0.9,0.5c-0.3,0.1-0.7,0.2-1.1,0.2
				h-3.8V10z M51.5,11.1v3.1h2.1c0.2,0,0.5,0,0.7-0.1s0.4-0.2,0.5-0.3s0.3-0.3,0.3-0.5c0.1-0.2,0.1-0.4,0.1-0.6
				c0-0.5-0.1-0.9-0.4-1.2c-0.3-0.3-0.6-0.4-1.1-0.4H51.5z M51.5,15.4v3.3h2.3c0.2,0,0.5,0,0.7-0.1c0.2-0.1,0.4-0.2,0.5-0.3
				c0.1-0.1,0.3-0.3,0.3-0.5c0.1-0.2,0.1-0.4,0.1-0.7c0-0.2,0-0.4-0.1-0.6c-0.1-0.2-0.2-0.4-0.3-0.5c-0.1-0.2-0.3-0.3-0.5-0.4
				c-0.2-0.1-0.5-0.1-0.7-0.1H51.5z"/>
			<path class="st2" d="M60.5,12.1c0.9,0,1.6,0.3,2,1c0.5,0.6,0.7,1.7,0.7,3c0,1.4-0.2,2.4-0.7,3c-0.5,0.6-1.1,1-2,1
				c-0.9,0-1.6-0.3-2-1c-0.5-0.6-0.7-1.7-0.7-3c0-1.4,0.2-2.4,0.7-3C58.9,12.4,59.6,12.1,60.5,12.1z M60.5,13.2
				c-0.5,0-0.9,0.2-1.1,0.7c-0.2,0.4-0.4,1.1-0.4,2v0.6c0,0.9,0.1,1.5,0.4,2c0.2,0.4,0.6,0.7,1.1,0.7c0.5,0,0.9-0.2,1.1-0.7
				c0.2-0.4,0.4-1.1,0.4-2v-0.6c0-0.9-0.1-1.5-0.4-2C61.4,13.4,61,13.2,60.5,13.2z"/>
			<path class="st2" d="M67.4,16l2.2,4h-1.4l-1.5-2.8l-1.5,2.8h-1.3l2.2-3.9L64,12.3h1.4l1.4,2.6l1.4-2.6h1.3L67.4,16z"/>
		</g>
		<path class="st2" d="M20.6,10.6l-4-5.7c-0.4-0.5-0.9-1-1.4-1.4l2-1.7c0.5-0.3,0.7-0.9,0.4-1.4c-0.3-0.5-0.9-0.7-1.4-0.4
			C16.2,0,16.1,0.1,16,0.2l-2.6,2.3C11.8,2,10.1,2,8.5,2.6L5.7,0.2C5.2-0.1,4.6-0.1,4.2,0.3l0,0c0,0.4-0.2,1,0.2,1.4l2.2,1.8
			C6.2,4,5.8,4.4,5.4,4.9l-3.9,5.7C-2.9,18.6,3.8,27,4,27.4l1.1,1.4L6.5,25l4.6,6.8l0.1,0.2l4.5-6.6l1.2,3.4l1.1-1.4
			C18.3,27,24.9,18.7,20.6,10.6z M7.1,5.9C8,4.7,9.5,3.9,11,4c1.6-0.1,3.1,0.7,4,2l0.8,0.8c-1.3,1.1-3,1.7-4.7,1.6H11
			c-1.7,0-3.4-0.6-4.8-1.7L7.1,5.9z M4.5,24.6C3,22.1,0.4,16.5,3.3,11.4l0,0l1.8-2.6c1.2,1,2.6,1.8,4.2,2.2L4.5,24.6z M11.2,28.5
			l-4-5.8L11,12l3.9,11L11.2,28.5z M17.5,24.6l-4.8-13.5c1.6-0.4,3-1.1,4.2-2.2l1.8,2.6C21.6,16.6,19,22.1,17.5,24.6L17.5,24.6z"/>
		<g>
			<defs>
				<path id="SVGID_1_" d="M20.6,10.6l-4-5.7c-0.4-0.5-0.9-1-1.4-1.4l2-1.7c0.5-0.3,0.7-0.9,0.4-1.4c-0.3-0.5-0.9-0.7-1.4-0.4
					C16.2,0,16.1,0.1,16,0.2l-2.6,2.3C11.8,2,10.1,2,8.5,2.6L5.7,0.2C5.2-0.1,4.6-0.1,4.2,0.3l0,0c0,0.4-0.2,1,0.2,1.4l2.2,1.8
					C6.2,4,5.8,4.4,5.4,4.9l-3.9,5.7C-2.9,18.6,3.8,27,4,27.4l1.1,1.4L6.5,25l4.6,6.8l0.1,0.2l4.5-6.6l1.2,3.4l1.1-1.4
					C18.3,27,24.9,18.7,20.6,10.6z M7.1,5.9C8,4.7,9.5,3.9,11,4c1.6-0.1,3.1,0.7,4,2l0.8,0.8c-1.3,1.1-3,1.7-4.7,1.6H11
					c-1.7,0-3.4-0.6-4.8-1.7L7.1,5.9z M4.5,24.6C3,22.1,0.4,16.5,3.3,11.4l0,0l1.8-2.6c1.2,1,2.6,1.8,4.2,2.2L4.5,24.6z M11.2,28.5
					l-4-5.8L11,12l3.9,11L11.2,28.5z M17.5,24.6l-4.8-13.5c1.6-0.4,3-1.1,4.2-2.2l1.8,2.6C21.6,16.6,19,22.1,17.5,24.6L17.5,24.6z"
					/>
			</defs>
			<defs>
				<path id="SVGID_2_" d="M20.6,10.6l-4-5.7c-0.4-0.5-0.9-1-1.4-1.4l2-1.7c0.5-0.3,0.7-0.9,0.4-1.4c-0.3-0.5-0.9-0.7-1.4-0.4
					C16.2,0,16.1,0.1,16,0.2l-2.6,2.3C11.8,2,10.1,2,8.5,2.6L5.7,0.2C5.2-0.1,4.6-0.1,4.2,0.3l0,0c0,0.4-0.2,1,0.2,1.4l2.2,1.8
					C6.2,4,5.8,4.4,5.4,4.9l-3.9,5.7C-2.9,18.6,3.8,27,4,27.4l1.1,1.4L6.5,25l4.6,6.8l0.1,0.2l4.5-6.6l1.2,3.4l1.1-1.4
					C18.3,27,24.9,18.7,20.6,10.6z M7.1,5.9C8,4.7,9.5,3.9,11,4c1.6-0.1,3.1,0.7,4,2l0.8,0.8c-1.3,1.1-3,1.7-4.7,1.6H11
					c-1.7,0-3.4-0.6-4.8-1.7L7.1,5.9z M4.5,24.6C3,22.1,0.4,16.5,3.3,11.4l0,0l1.8-2.6c1.2,1,2.6,1.8,4.2,2.2L4.5,24.6z M11.2,28.5
					l-4-5.8L11,12l3.9,11L11.2,28.5z M17.5,24.6l-4.8-13.5c1.6-0.4,3-1.1,4.2-2.2l1.8,2.6C21.6,16.6,19,22.1,17.5,24.6L17.5,24.6z"
					/>
			</defs>
			<clipPath id="SVGID_3_">
				<use xlink:href="#SVGID_1_"  style="overflow:visible;"/>
			</clipPath>
			<clipPath id="SVGID_4_" class="st3">
				<use xlink:href="#SVGID_2_"  style="overflow:visible;"/>
			</clipPath>
			<g class="st4">
				<polygon class="st1" points="5.2,28.7 11,12 16.9,28.7 16.2,30.8 14.9,35 7.5,34 				"/>
			</g>
		</g>
	</g>
</g>
</svg>
