<svg xmlns="http://www.w3.org/2000/svg" width="11" height="10" viewBox="0 0 11 10">
  <metadata><?xpacket begin="﻿" id="W5M0MpCehiHzreSzNTczkc9d"?>
<x:xmpmeta xmlns:x="adobe:ns:meta/" x:xmptk="Adobe XMP Core 5.6-c138 79.159824, 2016/09/14-01:09:01        ">
   <rdf:RDF xmlns:rdf="http://www.w3.org/1999/02/22-rdf-syntax-ns#">
      <rdf:Description rdf:about=""/>
   </rdf:RDF>
</x:xmpmeta>





















<?xpacket end="w"?></metadata>
<defs>
    <style>
      .cls-1 {
        fill: #8e8e8e;
        fill-rule: evenodd;
      }
    </style>
  </defs>
  <path id="filter" class="cls-1" d="M921.491,272.99h-9.968a0.47,0.47,0,0,0-.46.277,0.387,0.387,0,0,0,.109.5l3.84,3.5v3.452a0.419,0.419,0,0,0,.147.319l1.994,1.818a0.488,0.488,0,0,0,.351.135,0.6,0.6,0,0,0,.194-0.035,0.426,0.426,0,0,0,.3-0.419v-5.27l3.839-3.5a0.387,0.387,0,0,0,.11-0.5,0.471,0.471,0,0,0-.46-0.277h0Z" transform="translate(-911 -273)"/>
</svg>
