<svg xmlns="http://www.w3.org/2000/svg" viewBox="0 0 30 44.53"><defs><style>.cls-1{opacity:0.1;}.cls-2{fill:#fff;}.cls-3{fill:#f35757;stroke:#fff;stroke-linecap:round;stroke-miterlimit:10;stroke-width:2.06px;}</style></defs><title>pin-highlited</title><g id="Layer_2" data-name="Layer 2"><g id="Layer_1-2" data-name="Layer 1"><ellipse class="cls-1" cx="15.01" cy="42.58" rx="8.67" ry="1.95"/><path class="cls-2" d="M15.24,43.17,2.11,23.22A10.28,10.28,0,0,1,0,17.17a9.78,9.78,0,0,1,1.77-5.75l4.73-7A10.09,10.09,0,0,1,15,0a10.09,10.09,0,0,1,8.49,4.4l4.72,7.09A10.27,10.27,0,0,1,30,17.39a14.16,14.16,0,0,1-1.72,5.67l-.06.11ZM15,2.74A7.38,7.38,0,0,0,8.77,5.91l-4.71,7a7.05,7.05,0,0,0-1.31,4.24,7.63,7.63,0,0,0,1.66,4.55L15.22,38.15,25.88,21.72a11.58,11.58,0,0,0,1.38-4.33A7.46,7.46,0,0,0,25.92,13l-4.7-7.07A7.38,7.38,0,0,0,15,2.74Z"/><line class="cls-3" x1="15" y1="12.42" x2="15" y2="18.86"/><line class="cls-3" x1="15" y1="23" x2="15" y2="23.57"/></g></g></svg>