<svg xmlns="http://www.w3.org/2000/svg" width="14" height="14.031" viewBox="0 0 14 14.031">
  <metadata><?xpacket begin="﻿" id="W5M0MpCehiHzreSzNTczkc9d"?>
<x:xmpmeta xmlns:x="adobe:ns:meta/" x:xmptk="Adobe XMP Core 5.6-c138 79.159824, 2016/09/14-01:09:01        ">
   <rdf:RDF xmlns:rdf="http://www.w3.org/1999/02/22-rdf-syntax-ns#">
      <rdf:Description rdf:about=""/>
   </rdf:RDF>
</x:xmpmeta>





















<?xpacket end="w"?></metadata>
<defs>
    <style>
      .cls-1 {
        fill: #0079bf;
        fill-rule: evenodd;
      }
    </style>
  </defs>
  <path id="trello" class="cls-1" d="M1024.34,230.31a0.3,0.3,0,0,1-.21.082h-4.38a0.3,0.3,0,0,1-.21-0.082,0.3,0.3,0,0,1-.08-0.21v-9.337a0.3,0.3,0,0,1,.08-0.21,0.3,0.3,0,0,1,.21-0.082h4.38a0.3,0.3,0,0,1,.21.082,0.3,0.3,0,0,1,.08.21V230.1A0.3,0.3,0,0,1,1024.34,230.31Zm6.12-3.5a0.262,0.262,0,0,1-.2.083h-4.38a0.27,0.27,0,0,1-.21-0.083,0.261,0.261,0,0,1-.08-0.209v-5.836a0.265,0.265,0,0,1,.08-0.21,0.269,0.269,0,0,1,.21-0.082h4.38a0.262,0.262,0,0,1,.2.082,0.272,0.272,0,0,1,.09.21V226.6A0.269,0.269,0,0,1,1030.46,226.808Zm1.37-7.623a0.55,0.55,0,0,0-.41-0.173h-12.84a0.586,0.586,0,0,0-.58.584v12.839a0.586,0.586,0,0,0,.58.583h12.84a0.6,0.6,0,0,0,.59-0.583V219.6A0.553,0.553,0,0,0,1031.83,219.185Z" transform="translate(-1018 -219)"/>
</svg>
